<?xml version="1.0" encoding="UTF-8"?>
<svg id="Layer_1" data-name="Layer 1" xmlns="http://www.w3.org/2000/svg" viewBox="0 0 24 24">
  <rect width="24" height="24" fill="none"/>
  <g>
    <path d="m14.08,17.58c-.98,0-1.86-.44-2.32-1.14-.14-.21-.46-.29-.71-.17-.25.12-.35.38-.21.59.64.98,1.88,1.6,3.24,1.6,2.04,0,3.7-1.38,3.7-3.07,0-1.32-1.01-2.48-2.49-2.9-.27-.08-.57.04-.67.27-.09.23.05.48.32.55h0c1.06.3,1.78,1.13,1.78,2.08,0,1.22-1.19,2.2-2.65,2.2Z" fill="#fff"/>
    <path d="m6.18,12.45c0,1.7,1.66,3.07,3.7,3.07s3.7-1.38,3.7-3.07-1.66-3.07-3.7-3.07-3.7,1.38-3.7,3.07Zm6.35,0c0,1.22-1.19,2.2-2.65,2.2s-2.65-.99-2.65-2.2,1.19-2.2,2.65-2.2,2.65.99,2.65,2.2Z" fill="#fff"/>
    <path d="m19.99,9.43s0-.04,0-.06c0-.12-.06-.23-.18-.31l-6.78-4.77c-.27-.19-.64-.3-1.02-.3s-.74.11-1.02.3l-6.83,4.77c-.11.08-.18.19-.18.31,0,.02,0,.04,0,.06,0,.02,0,.04,0,.06v9.23c0,.71.82,1.28,1.84,1.28h12.33c1.01,0,1.84-.57,1.84-1.28v-9.23s0-.04,0-.06Zm-1.04,9.29c0,.3-.35.55-.79.55H5.84c-.43,0-.79-.25-.79-.55v-9.12l6.72-4.69c.07-.05.16-.07.25-.07s.19.03.26.07l6.67,4.69v9.12Z" fill="#fff"/>
  </g>
</svg>