<?xml version="1.0" encoding="UTF-8"?>
<svg id="logo" xmlns="http://www.w3.org/2000/svg" viewBox="0 0 1018.89 511.1">
  <g>
    <g>
      <path d="m928.67,324.38l2.33-1.06v-48.4l-1.06-1.06-79.27-47.14-3.38,1.06v48.19l1.06,1.06,80.32,47.35Zm-78-94.27l76.94,44.81v44.81l-76.94-44.81v-44.81Z" fill="#374151"/>
      <path d="m959.74,383.99l-1.06-129.78-1.06-2.33-130.84-75.88h-2.11l-130.84,75.88-1.06,2.33,1.06,129.78,1.06,2.33,130.84,75.88h2.33l13.74-8.03h1.06l58.55-33.4h1.06l58.55-33.4-1.27-3.38Zm-63.2,33.4l-9.09-5.71,27.48-16.06,9.09,5.71-27.48,16.06Zm-28.54,16.06l-9.09-5.71,26.42-16.06,9.09,5.71-26.42,16.06Zm-30.02,17.12l-9.09-5.71,28.75-16.06,9.09,5.71-28.75,16.06Zm-51.58-16.06l10.36-5.71,28.75,16.06-10.36,5.71-28.75-16.06Zm-27.69-16.06l10.36-5.71,26.42,16.06-10.36,5.71-26.42-16.06Zm-29.8-17.12l10.36-5.71,27.48,16.06-10.36,5.71-27.48-16.06Zm-28.75-17.33l10.36-5.71,27.48,16.06-10.36,5.71-27.48-16.06Zm35.72-121.75l40.16-23.04,1.06,95.33-40.16,23.04-1.06-95.33Zm90.68,147.12l-26.42-16.06,26.42-16.06,26.42,16.06-26.42,16.06Zm28.75-15.01l28.75,16.06-26.42,16.06-28.75-16.06,26.42-16.06Zm-57.49-66.58l27.48,16.06-27.48,16.06-27.48-16.06,27.48-16.06Zm2.33-1.06l26.42-15.01,27.48,16.06-26.42,15.01-27.48-16.06Zm-31.07,18.39l27.48,16.06-26.42,16.06-27.48-16.06,26.42-16.06Zm28.75,16.06l27.48,16.06-26.42,16.06-27.48-16.06,26.42-16.06Zm2.33,0l27.48-16.06,27.48,16.06-27.48,16.06-27.48-16.06Zm28.75-17.33l26.42-15.01,27.48,16.06-26.42,15.01-27.48-16.06Zm-104.63,26.42l16.06-9.09,27.48,16.06-28.75,16.06-27.48-16.06,12.68-6.98Zm44.81,8.03l27.48,16.06-28.75,16.06-27.48-16.06,28.75-16.06Zm30.02,16.06l26.42,16.06-28.75,16.06-26.42-16.06,28.75-16.06Zm29.8-17.12l27.48-16.06,26.42,16.06-27.48,16.06-26.42-16.06Zm28.75-16.06l26.42-15.01,21.77,12.68,5.71,3.38-26.42,15.01-27.48-16.06Zm-58.55,66.58l28.75-16.06,28.75,16.06-28.75,16.06-28.75-16.06Zm86.03-17.33l-28.75-16.06,27.48-16.06,28.75,16.06-27.48,16.06Zm1.06-33.19l26.42-15.01,28.75,16.06-26.42,16.06-28.75-17.12Zm68.91,3.38l-127.46-73.56v-124.08l126.4,73.56,1.06,124.08Zm-130.84-197.42v124.08l-43.54,25.36-1.06-95.33-2.33-1.06-43.54,25.36-1.06,1.06,1.06,97.65-1.06,1.06-34.45,19.45v-124.08l125.98-73.56Zm2.33,274.36l-9.09-5.71,10.36-5.71,9.09,5.71-10.36,5.71Zm98.71-57.49l-9.09-5.71,26.42-16.06,9.09,5.71-26.42,16.06Z" fill="#374151"/>
    </g>
    <circle cx="826.89" cy="319.1" r="192" fill="none"/>
  </g>
  <g>
    <g>
      <g>
        <path d="m240.7,195l1.1-.5v-22.9l-.5-.5-37.5-22.3-1.6.5v22.8l.5.5,38,22.4Zm-36.9-44.6l36.4,21.2v21.2l-36.4-21.2v-21.2Z" fill="#374151"/>
        <path d="m255.4,223.2l-.5-61.4-.5-1.1-61.9-35.9h-1l-61.9,35.9-.5,1.1.5,61.4.5,1.1,61.9,35.9h1.1l6.5-3.8h.5l27.7-15.8h.5l27.7-15.8-.6-1.6Zm-29.9,15.8l-4.3-2.7,13-7.6,4.3,2.7-13,7.6Zm-13.5,7.6l-4.3-2.7,12.5-7.6,4.3,2.7-12.5,7.6Zm-14.2,8.1l-4.3-2.7,13.6-7.6,4.3,2.7-13.6,7.6Zm-24.4-7.6l4.9-2.7,13.6,7.6-4.9,2.7-13.6-7.6Zm-13.1-7.6l4.9-2.7,12.5,7.6-4.9,2.7-12.5-7.6Zm-14.1-8.1l4.9-2.7,13,7.6-4.9,2.7-13-7.6Zm-13.6-8.2l4.9-2.7,13,7.6-4.9,2.7-13-7.6Zm16.9-57.6l19-10.9.5,45.1-19,10.9-.5-45.1Zm42.9,69.6l-12.5-7.6,12.5-7.6,12.5,7.6-12.5,7.6Zm13.6-7.1l13.6,7.6-12.5,7.6-13.6-7.6,12.5-7.6Zm-27.2-31.5l13,7.6-13,7.6-13-7.6,13-7.6Zm1.1-.5l12.5-7.1,13,7.6-12.5,7.1-13-7.6Zm-14.7,8.7l13,7.6-12.5,7.6-13-7.6,12.5-7.6Zm13.6,7.6l13,7.6-12.5,7.6-13-7.6,12.5-7.6Zm1.1,0l13-7.6,13,7.6-13,7.6-13-7.6Zm13.6-8.2l12.5-7.1,13,7.6-12.5,7.1-13-7.6Zm-49.5,12.5l7.6-4.3,13,7.6-13.6,7.6-13-7.6,6-3.3Zm21.2,3.8l13,7.6-13.6,7.6-13-7.6,13.6-7.6Zm14.2,7.6l12.5,7.6-13.6,7.6-12.5-7.6,13.6-7.6Zm14.1-8.1l13-7.6,12.5,7.6-13,7.6-12.5-7.6Zm13.6-7.6l12.5-7.1,10.3,6,2.7,1.6-12.5,7.1-13-7.6Zm-27.7,31.5l13.6-7.6,13.6,7.6-13.6,7.6-13.6-7.6Zm40.7-8.2l-13.6-7.6,13-7.6,13.6,7.6-13,7.6Zm.5-15.7l12.5-7.1,13.6,7.6-12.5,7.6-13.6-8.1Zm32.6,1.6l-60.3-34.8v-58.7l59.8,34.8.5,58.7Zm-61.9-93.4v58.7l-20.6,12-.5-45.1-1.1-.5-20.6,12-.5.5.5,46.2-.5.5-16.3,9.2v-58.7l59.6-34.8Zm1.1,129.8l-4.3-2.7,4.9-2.7,4.3,2.7-4.9,2.7Zm46.7-27.2l-4.3-2.7,12.5-7.6,4.3,2.7-12.5,7.6Z" fill="#374151"/>
      </g>
      <path d="m66.5,236l1.1,3.3-7.1,7.1,1.6,4.3h0l7.6-7.6c.5.5,1.1,1.1,1.6,1.1.5.5,1.1.5,1.6.5h2.2c.5,0,1.6,0,2.2-.5h0c1.1-.5,2.2-1.1,2.7-1.6s1.1-1.6,1.6-2.2h0c.5-1.1.5-1.6.5-2.7s-.5-2.2-.5-3.3h0l-2.7-7.6-22.3,7.6,1.6,4.3,8.3-2.7Zm4.4,2.1l-1.1-3.3,7.1-2.2,1.1,3.3c0,.5.5,1.1.5,1.6v1.1h0c0,.5-.5,1.1-1.1,1.1s-1.1.5-1.6.5h-2.7c-.5,0-1.1-.5-1.1-1.1-.6.1-1.1-.4-1.1-1h0Zm25.5,47.3h0l2.7-2.2c1.1-.5,1.6-1.6,2.2-2.2.5-.5,1.1-1.6,1.6-2.2h0c.5-.5.5-1.6.5-2.2v-2.2h0c0-.5,0-1.6-.5-2.2-.5-.5-.5-1.6-1.1-2.2h0c-.5-.5-1.1-1.1-1.6-1.6s-1.1-.5-2.2-1.1h0c-.5,0-1.6-.5-2.2-.5-.5,0-1.6,0-2.2.5h0c-1.1,0-1.6.5-2.7,1.1s-1.6,1.1-2.2,1.6h0l-2.7,2.2c-.5.5-1.6,1.1-2.2,1.6-.5.5-1.1,1.1-1.6,2.2h0c-.5.5-.5,1.6-1.1,2.2v2.2h0c0,.5,0,1.6.5,2.2s.5,1.6,1.1,2.2h0c.5.5,1.1,1.1,1.6,1.6s1.1.5,2.2,1.1h0c.5,0,1.6.5,2.2.5h2.7c.5,0,1.6-.5,2.7-1.1.7-.4,1.2-.9,2.3-1.5h0Zm0-6h0l-2.7,2.2c-.5.5-1.1.5-1.1,1.1-.5.5-1.1.5-1.1.5h0c-.5,0-1.1.5-1.6.5h-1.6q-.5,0-1.1-.5c-.5,0-.5-.5-1.1-1.1h0q-.5-.5-.5-1.1v-1.1h0c0-.5,0-1.1.5-1.1,0-.5.5-1.1,1.1-1.6h0q.5-.5,1.1-1.1t1.1-1.1h0l2.7-2.2c.5-.5,1.1-.5,1.6-1.1.5-.5,1.1-.5,1.1-.5h0c.5,0,1.1-.5,1.6-.5h1.6q.5,0,1.1.5c.5,0,.5.5,1.1.5h0q.5.5.5,1.1v1.1h0c0,.5,0,1.1-.5,1.6,0,.5-.5,1.1-.5,1.6h0q-.5.5-1.1,1.1c-1.7.7-2.2,1.2-2.2,1.2h0Zm36.9,33.7h0l1.6-2.7c.5-1.1,1.1-1.6,1.1-2.7.5-1.1.5-1.6.5-2.7h0v-2.2c0-.6-.5-1.6-.5-2.2h0c-.5-.5-.5-1.1-1.1-2.2-.5-.5-1.1-1.1-2.2-1.6h0c-.5-.5-1.6-.5-2.2-1.1-.5,0-1.6-.5-2.2,0h0c-.5,0-1.6,0-2.2.5-.5,0-1.6.5-2.2,1.1h0c-.5.5-1.6,1.1-2.2,1.6s-1.1,1.6-1.6,2.2h0l-1.6,2.7c-.5,1.1-1.1,1.6-1.1,2.7-.5,1.1-.5,1.6-.5,2.2h0v2.7c0,.5.5,1.6.5,2.2h0c.5.5.5,1.1,1.1,2.2.5.5,1.1,1.1,2.2,1.6h0c.5.5,1.6.5,2.2,1.1.5,0,1.6.5,2.2.5h0c.5,0,1.6,0,2.2-.5.5-.5,1.6-.5,2.2-1.1h0c.5-.5,1.1-1.1,2.2-1.6.6-1,1.1-2.1,1.6-2.7h0Zm-2.1-5.4h0l-1.6,2.7c-.5.5-.5,1.1-1.1,1.6q-.5.5-1.1,1.1h0c-.5.5-1.1.5-1.1,1.1-.5,0-1.1.5-1.6.5h-1.1q-.5,0-1.1-.5h0c-.5,0-.5-.5-1.1-1.1,0-.5-.5-.5-.5-1.1h0v-1.6c0-.5,0-1.1.5-1.6h0c0-.5.5-1.1.5-1.6s.5-1.1.5-1.6h0l1.6-2.7c.5-.5.5-1.1,1.1-1.6.5-.5.5-1.1,1.1-1.1h0c.5-.5,1.1-.5,1.1-1.1.5,0,1.1-.5,1.6-.5h1.1q.5,0,1.1.5h0c.5,0,.5.5,1.1.5,0,.5.5.5.5,1.1h0v3.2h0c0,.5-.5,1.1-.5,1.6-.5,1.1-.5,1.6-1,2.2h0Zm38.5,12.5l-.5-9.2-5.4-1.1-4.3,22.8,3.8.5,1.1-6.5,1.6-10.3,1.1,9.8,2.2.5,4.9-9.2-2.2,10.9-1.1,6.5,3.8.5,4.3-22.8-5.4-1.1-3.9,8.7Zm42.4,4.9l9.8-1.6-.5-3.8-9.8,1.6-1.1-6.5,10.9-1.6-.5-3.8-15.8,2.7,3.8,22.8,4.3-.5-1.1-9.3Zm56.5-14.7l-9.8,5.4-9.8-17.4-3.8,2.2,11.4,20.1,13.6-7.6-1.6-2.7Zm29.9-38h0l-2.7-2.2c-.5-.5-1.6-1.1-2.7-1.6-1.1-.5-1.6-.5-2.7-1.1h0c-.5,0-1.6-.5-2.2-.5s-1.6,0-2.2.5h0c-.5,0-1.6.5-2.2,1.1l-1.6,1.6h0c-.5.5-1.1,1.6-1.1,2.2-.5.5-.5,1.6-.5,2.2h0v2.2c0,.5.5,1.6.5,2.2h0c.5.5,1.1,1.6,1.6,2.2.5.5,1.1,1.6,2.2,2.2h0l2.7,2.2c.5.5,1.6,1.1,2.2,1.6.5.5,1.6.5,2.2,1.1h0c1.1,0,1.6.5,2.7.5h2.2c.5,0,1.6-.5,2.2-1.1s1.1-1.1,1.6-1.6h0c.5-.5,1.1-1.1,1.1-2.2.5-.5.5-1.6.5-2.2h0v-2.2c0-1.1-.5-1.6-.5-2.2h0c-.5-.5-1.1-1.6-1.6-2.2-.1-1.6-.6-2.2-1.7-2.7h0Zm-5.4,1.1h0l2.7,2.2c.5.5,1.1.5,1.1,1.1l1.1,1.1h0c.5.5.5,1.1.5,1.6s.5,1.1.5,1.6h0v1.1c0,.5-.5.5-.5,1.1h0l-1.1,1.1c-.5,0-.5.5-1.1.5h-1.6c-.5,0-1.1-.5-1.6-.5h0c-.5,0-1.1-.5-1.1-.5-.5-.5-1.1-.5-1.1-1.1h0l-2.7-2.2c-.5-.5-1.1-.5-1.1-1.1l-1.1-1.1h0c-.5-.5-.5-1.1-1.1-1.6,0-.5-.5-1.1-.5-1.6h0v-1.1c0-.5.5-.5.5-1.1h0q.5-.5,1.1-.5c.6,0,.5-.5,1.1-.5h1.6c.5,0,1.1,0,1.6.5h0c.5,0,1.1.5,1.1.5.6-.1,1.1-.1,1.7.5h0Zm6.5-30.5l22.8,4.9,1.1-3.8-11.4-6-1.1-.5h1.1l12.5,2.2,1.1-3.8-21.2-10.9-1.6,3.8,12,6,1.1.5h-1.1l-13-2.7-1.1,3.3,11.4,6,1.1.5h-1.1l-13-2.7.4,3.2Z" fill="#374151"/>
      <path d="m66,155l1.1-3.3,9.8-1.6,1.6-4.3h0l-10.3,1.6c0-.5,0-1.1-.5-2.2,0-.5-.5-1.1-1.1-1.6h0c-.5-.5-1.1-1.1-1.6-1.1-.5-.5-1.1-.5-2.2-1.1h0c-1.1-.5-2.2-.5-3.3-.5s-1.6.5-2.7,1.1h0c-.5.5-1.6,1.1-2.2,2.2s-1.1,2.2-1.6,3.3h0l-2.2,7.1,21.7,7.1,1.6-4.3-8.1-2.4Zm-2.2-4.3l-1.1,3.3-7.1-2.2,1.1-3.3c0-.5.5-1.1.5-1.6q.5-.5,1.1-1.1h0c.5,0,1.1-.5,1.6-.5h1.6c.5,0,1.1.5,1.1.5.5,0,.5.5.5,1.1h0c0,.5.5,1.1.5,1.6.2.5.2,1.6.2,2.2Zm30.4-46.8h0l-2.7-2.2c-1.1-.5-1.6-1.1-2.7-1.6s-1.6-.5-2.7-1.1h-2.2c-.6,0-1.6,0-2.2.5h0c-.5,0-1.6.5-2.2,1.1-.5.5-1.1,1.1-1.6,1.6h0c-.5.5-1.1,1.6-1.1,2.2-.5.5-.5,1.6-.5,2.2h0v2.2c0,.6.5,1.6.5,2.2h0c.5.5,1.1,1.6,1.6,2.2.5.5,1.1,1.6,2.2,2.2h0l2.7,2.2c.5.5,1.6,1.1,2.2,1.6.5.5,1.6.5,2.2,1.1h0c1.1,0,1.6.5,2.2.5s1.6,0,2.2-.5h0c.5,0,1.6-.5,2.2-1.1.5-.5,1.1-1.1,1.6-1.6h0c.5-.5,1.1-1.1,1.1-2.2.5-.5.5-1.6.5-2.2h0v-2.2c0-.5-.5-1.6-.5-2.2h0c-.5-.5-1.1-1.6-1.6-2.2-.1-1.6-.6-2.1-1.2-2.7Zm-5.4,1.1h0l2.7,2.2c.5.5,1.1.5,1.1,1.1q.5.5,1.1,1.1h0c.5.5.5,1.1.5,1.6s.5,1.1.5,1.6h0v1.1c0,.5-.5.5-.5,1.1h0q-.5.5-1.1,1.1c-.5,0-.5.5-1.1.5h-1.6c-.5,0-1.1-.5-1.6-.5h0c-.5,0-1.1-.5-1.1-.5-.5-.5-1.1-.5-1.1-1.1h0l-2.7-2.2c-.5-.5-1.1-.5-1.1-1.1q-.5-.5-1.1-1.1h0c-.5-.5-.5-1.1-1.1-1.6,0-.5-.5-1.1-.5-1.6h0v-1.1c0-.5.5-.5.5-1.1h0q.5-.5,1.1-.5c.6,0,.5-.5,1.1-.5h1.6c.5,0,1.1,0,1.6.5h0c.5,0,1.1.5,1.1.5.6,0,1.1.5,1.7.5Zm42.9-29.3h0l-1.6-2.7c-.5-1.1-1.1-1.6-1.6-2.2-.5-.5-1.1-1.1-2.2-1.6h0c-.5-.5-1.1-.5-2.2-1.1-.5,0-1.6-.5-2.2-.5h-2.2c-.6,0-1.6.5-2.2,1.1h0c-.5.5-1.6,1.1-2.2,1.6-.5.5-1.1,1.1-1.1,1.6h0c-.5.5-.5,1.6-.5,2.2v2.2h0c0,1.1.5,1.6.5,2.7.5,1.1.5,1.6,1.1,2.7h0l1.6,2.7c.5,1.1,1.1,1.6,1.6,2.2.5.5,1.1,1.1,1.6,1.6h0c.5.5,1.6,1.1,2.2,1.1.5.5,1.6.5,2.2.5h2.2c.6,0,1.6-.5,2.2-1.1h0c.5-.5,1.1-1.1,1.6-1.6s1.1-1.1,1.1-1.6h0c1.6-.5,1.6-1.6,1.6-2.2v-2.7h0c0-1.1-.5-1.6-.5-2.7.1-.6-.4-1.7-1-2.2Zm-5.4-.5h0l1.6,2.7c.5.5.5,1.1.5,1.6s.5,1.1.5,1.6h0v3.2h0c0,.5-.5.5-.5,1.1s-.5.5-1.1.5h0c-.5,0-.5.5-1.1.5h-1.1c-.5,0-1.1-.5-1.1-.5-.5-.5-1.1-.5-1.1-1.1h0q-.5-1.1-1.1-1.6c-.5-.5-.5-1.1-1.1-1.1h0l-1.6-2.7c-.5-.5-.5-1.1-.5-1.6s-.5-1.1-.5-1.6h0c0-.5-.5-1.1-.5-1.6v-1.6h0c0-.5.5-.5.5-1.1,0,0,.5-.5,1.1-.5h0c.5,0,.5-.5,1.1-.5h1.1c.5,0,1.1,0,1.6.5.5,0,1.1.5,1.1,1.1h0q.5.5,1.1,1.1c.5.5.5,1,1.1,1.6Zm41.3-15.8l-3.8-8.1-5.4,1.1,4.3,22.8,3.8-.5-1.1-6.5-2.2-10.3,4.3,8.7,2.2-.5,1.1-10.3,1.6,10.3,1.1,6.5,3.8-.5-4.3-22.8-5.4,1.1v9h0Zm45.1,3.8l9.8,1.6.5-3.8-9.8-1.6,1.1-6,10.9,1.6.5-3.8-15.2-2.7-3.8,22.8,4.3.5,1.7-8.6Zm50.5,26.1l-9.2-5.4,9.8-16.8-3.8-2.2-11.4,20.1,13,7.6,1.6-3.3Zm37.5,27.7h0l2.7-2.2,2.2-2.2c.5-.5,1.1-1.6,1.6-2.2h0c.5-.5.5-1.6.5-2.2v-2.2h0c0-.5-.5-1.6-.5-2.2-.5-.5-.5-1.6-1.1-2.2h0l-1.6-1.6c-.5-.5-1.1-.5-2.2-1.1h0c-.5,0-1.6-.5-2.2-.5-.5,0-1.6,0-2.2.5h0c-.5,0-1.6.5-2.2,1.1-.5.5-1.6,1.1-2.2,1.6h0l-2.7,2.2c-.5.5-1.6,1.1-2.2,2.2-.5.5-1.1,1.1-1.6,2.2h0c-.5.5-.5,1.6-1.1,2.2v2.2h0c0,.5,0,1.6.5,2.2.5.5.5,1.6,1.1,2.2h0l1.6,1.6c.5.5,1.1.5,2.2,1.1h0c.5,0,1.6.5,2.2.5,1.1,0,1.6,0,2.7-.5h0c.5,0,1.6-.5,2.2-1.1s1.2-1.1,2.3-1.6Zm-.6-6h0l-2.7,2.2c-.5.5-1.1.5-1.1,1.1-.5.5-1.1.5-1.1.5h0c-.5,0-1.1.5-1.6.5h-1.6q-.5,0-1.1-.5c-.5,0-.5-.5-1.1-.5h0q-.5-.5-.5-1.1v-1.1h0c0-.5,0-1.1.5-1.1,0-.5.5-1.1,1.1-1.6h0l1.1-1.1,1.1-1.1h0l2.7-2.2c.5-.5,1.1-.5,1.1-1.1.5-.5,1.1-.5,1.1-.5h0c.5-.5,1.1-.5,1.6-.5h1.6q.5,0,1.1.5c.5,0,.5.5,1.1.5h0q.5.5.5,1.1v1.1h0v1.6c0,.5-.5,1.1-.5,1.6h0c0,.5-.5.5-1.1,1.1-1.1.1-1.6.6-2.2.6Zm27.2,27.2l-20.6,10.3,1.1,3.8,12.5-2.2h1.1l-1.1.5-10.9,6,1.1,3.8,22.8-4.3-1.1-3.8-12.5,2.7h-1.1l1.1-.5,11.4-6-1.1-3.3-12.5,2.7h-1.1l.5-.5,11.4-5.4-1-3.8Z" fill="#374151"/>
      <path d="m50.8,195.2c0-4.9,3.8-8.7,8.7-8.7s8.7,3.8,8.7,8.7-3.8,8.7-8.7,8.7c-4.4.6-8.7-3.8-8.7-8.7Zm264.6,0c0-4.9,3.8-8.7,8.7-8.7s8.7,3.8,8.7,8.7-3.8,8.7-8.7,8.7c-4.4.6-8.7-3.8-8.7-8.7Z" fill="#374151"/>
    </g>
    <circle cx="192" cy="192" r="192" fill="none"/>
  </g>
</svg>