<?xml version="1.0" encoding="utf-8"?>
<!-- Generator: Adobe Illustrator 27.3.1, SVG Export Plug-In . SVG Version: 6.00 Build 0)  -->
<svg version="1.1" id="logo" xmlns="http://www.w3.org/2000/svg" xmlns:xlink="http://www.w3.org/1999/xlink" x="0px" y="0px"
	 viewBox="0 0 1125 2436" style="enable-background:new 0 0 1125 2436;" xml:space="preserve">
<style type="text/css">
	.st0{fill:#374151;}
	.st1{fill:none;}
</style>
<g>
	<g>
		<g>
			<path class="st0" d="M608.1,996.4l1.1-0.5V973l-0.5-0.5l-37.5-22.3l-1.6,0.5v22.8l0.5,0.5L608.1,996.4z M571.2,951.8l36.4,21.2
				v21.2L571.2,973V951.8z"/>
			<path class="st0" d="M622.8,1024.6l-0.5-61.4l-0.5-1.1l-61.9-35.9h-0.5h-0.5l-61.9,35.9l-0.5,1.1l0.5,61.4l0.5,1.1l61.9,35.9h1.1
				l6.5-3.8c0,0,0,0,0.5,0l27.7-15.8l0,0c0,0,0,0,0.5,0l0,0l27.7-15.8L622.8,1024.6z M592.9,1040.4l-4.3-2.7l13-7.6l4.3,2.7
				L592.9,1040.4z M579.4,1048l-4.3-2.7l12.5-7.6l4.3,2.7L579.4,1048z M565.2,1056.1l-4.3-2.7l13.6-7.6l4.3,2.7L565.2,1056.1z
				 M540.8,1048.5l4.9-2.7l13.6,7.6l-4.9,2.7L540.8,1048.5z M527.7,1040.9l4.9-2.7l12.5,7.6l-4.9,2.7L527.7,1040.9z M513.6,1032.8
				l4.9-2.7l13,7.6l-4.9,2.7L513.6,1032.8z M500,1024.6l4.9-2.7l13,7.6l-4.9,2.7L500,1024.6z M516.9,967l19-10.9l0.5,45.1l-19,10.9
				L516.9,967z M559.8,1036.6l-12.5-7.6l12.5-7.6l12.5,7.6L559.8,1036.6z M573.4,1029.5l13.6,7.6l-12.5,7.6l-13.6-7.6L573.4,1029.5z
				 M546.2,998l13,7.6l-13,7.6l-13-7.6L546.2,998z M547.3,997.5l12.5-7.1l13,7.6l-12.5,7.1L547.3,997.5z M532.6,1006.2l13,7.6
				l-12.5,7.6l-13-7.6L532.6,1006.2z M546.2,1013.8l13,7.6l-12.5,7.6l-13-7.6L546.2,1013.8z M547.3,1013.8l13-7.6l13,7.6l-13,7.6
				L547.3,1013.8z M560.9,1005.6l12.5-7.1l13,7.6l-12.5,7.1L560.9,1005.6z M511.4,1018.1l7.6-4.3l13,7.6l-13.6,7.6l-13-7.6
				L511.4,1018.1z M532.6,1021.9l13,7.6l-13.6,7.6l-13-7.6L532.6,1021.9z M546.8,1029.5l12.5,7.6l-13.6,7.6l-12.5-7.6L546.8,1029.5z
				 M560.9,1021.4l13-7.6l12.5,7.6l-13,7.6L560.9,1021.4z M574.5,1013.8l12.5-7.1l10.3,6l2.7,1.6l-12.5,7.1L574.5,1013.8z
				 M546.8,1045.3l13.6-7.6l13.6,7.6l-13.6,7.6L546.8,1045.3z M587.5,1037.1l-13.6-7.6l13-7.6l13.6,7.6L587.5,1037.1z M588,1021.4
				l12.5-7.1l13.6,7.6l-12.5,7.6L588,1021.4z M620.6,1023l-60.3-34.8v-58.7l59.8,34.8L620.6,1023z M558.7,929.6v58.7l-20.6,12
				l-0.5-45.1l-1.1-0.5l-20.6,12l-0.5,0.5l0.5,46.2l-0.5,0.5l-16.3,9.2v-58.7L558.7,929.6z M559.8,1059.4l-4.3-2.7l4.9-2.7l4.3,2.7
				L559.8,1059.4z M606.5,1032.2l-4.3-2.7l12.5-7.6l4.3,2.7L606.5,1032.2z"/>
		</g>
		<path class="st0" d="M433.9,1037.4l1.1,3.3l-7.1,7.1l1.6,4.3l0,0l7.6-7.6c0.5,0.5,1.1,1.1,1.6,1.1c0.5,0.5,1.1,0.5,1.6,0.5l0,0
			c0.5,0,1.1,0,2.2,0c0.5,0,1.6,0,2.2-0.5l0,0c1.1-0.5,2.2-1.1,2.7-1.6c0.5-0.5,1.1-1.6,1.6-2.2l0,0c0.5-1.1,0.5-1.6,0.5-2.7
			s-0.5-2.2-0.5-3.3l0,0l-2.7-7.6l-22.3,7.6l1.6,4.3L433.9,1037.4z M438.3,1039.5l-1.1-3.3l7.1-2.2l1.1,3.3c0,0.5,0.5,1.1,0.5,1.6
			c0,0.5,0,1.1,0,1.1l0,0c0,0.5-0.5,1.1-1.1,1.1s-1.1,0.5-1.6,0.5l0,0c-0.5,0-1.1,0-1.6,0c-0.5,0-1.1,0-1.1,0l0,0
			c-0.5,0-1.1-0.5-1.1-1.1C438.8,1040.6,438.3,1040.1,438.3,1039.5L438.3,1039.5z M463.8,1086.8L463.8,1086.8l2.7-2.2
			c1.1-0.5,1.6-1.6,2.2-2.2c0.5-0.5,1.1-1.6,1.6-2.2l0,0c0.5-0.5,0.5-1.6,0.5-2.2s0-1.6,0-2.2l0,0c0-0.5,0-1.6-0.5-2.2
			c-0.5-0.5-0.5-1.6-1.1-2.2l0,0c-0.5-0.5-1.1-1.1-1.6-1.6c-0.5-0.5-1.1-0.5-2.2-1.1l0,0c-0.5,0-1.6-0.5-2.2-0.5
			c-0.5,0-1.6,0-2.2,0.5l0,0c-1.1,0-1.6,0.5-2.7,1.1s-1.6,1.1-2.2,1.6l0,0l-2.7,2.2c-0.5,0.5-1.6,1.1-2.2,1.6
			c-0.5,0.5-1.1,1.1-1.6,2.2l0,0c-0.5,0.5-0.5,1.6-1.1,2.2c0,0.5,0,1.6,0,2.2l0,0c0,0.5,0,1.6,0.5,2.2s0.5,1.6,1.1,2.2l0,0
			c0.5,0.5,1.1,1.1,1.6,1.6c0.5,0.5,1.1,0.5,2.2,1.1l0,0c0.5,0,1.6,0.5,2.2,0.5c1.1,0,1.6,0,2.7,0l0,0c0.5,0,1.6-0.5,2.7-1.1
			C462.2,1087.9,462.7,1087.4,463.8,1086.8L463.8,1086.8z M463.8,1080.8L463.8,1080.8l-2.7,2.2c-0.5,0.5-1.1,0.5-1.1,1.1
			c-0.5,0.5-1.1,0.5-1.1,0.5l0,0c-0.5,0-1.1,0.5-1.6,0.5c-0.5,0-1.1,0-1.6,0l0,0c-0.5,0-0.5,0-1.1-0.5c-0.5,0-0.5-0.5-1.1-1.1l0,0
			c-0.5-0.5-0.5-0.5-0.5-1.1s0-0.5,0-1.1l0,0c0-0.5,0-1.1,0.5-1.1c0-0.5,0.5-1.1,1.1-1.6l0,0c0.5-0.5,0.5-0.5,1.1-1.1
			c0.5-0.5,0.5-0.5,1.1-1.1l0,0l2.7-2.2c0.5-0.5,1.1-0.5,1.6-1.1c0.5-0.5,1.1-0.5,1.1-0.5l0,0c0.5,0,1.1-0.5,1.6-0.5
			c0.5,0,1.1,0,1.6,0l0,0c0.5,0,0.5,0,1.1,0.5c0.5,0,0.5,0.5,1.1,0.5l0,0c0.5,0.5,0.5,0.5,0.5,1.1c0,0.5,0,0.5,0,1.1l0,0
			c0,0.5,0,1.1-0.5,1.6c0,0.5-0.5,1.1-0.5,1.6l0,0c-0.5,0.5-0.5,0.5-1.1,1.1C464.3,1080.3,463.8,1080.8,463.8,1080.8L463.8,1080.8z
			 M500.7,1114.5L500.7,1114.5l1.6-2.7c0.5-1.1,1.1-1.6,1.1-2.7c0.5-1.1,0.5-1.6,0.5-2.7l0,0c0-0.5,0-1.6,0-2.2s-0.5-1.6-0.5-2.2
			l0,0c-0.5-0.5-0.5-1.1-1.1-2.2c-0.5-0.5-1.1-1.1-2.2-1.6l0,0c-0.5-0.5-1.6-0.5-2.2-1.1c-0.5,0-1.6-0.5-2.2,0l0,0
			c-0.5,0-1.6,0-2.2,0.5c-0.5,0-1.6,0.5-2.2,1.1l0,0c-0.5,0.5-1.6,1.1-2.2,1.6s-1.1,1.6-1.6,2.2l0,0l-1.6,2.7
			c-0.5,1.1-1.1,1.6-1.1,2.7c-0.5,1.1-0.5,1.6-0.5,2.2l0,0c0,1.1,0,1.6,0,2.7c0,0.5,0.5,1.6,0.5,2.2l0,0c0.5,0.5,0.5,1.1,1.1,2.2
			c0.5,0.5,1.1,1.1,2.2,1.6l0,0c0.5,0.5,1.6,0.5,2.2,1.1c0.5,0,1.6,0.5,2.2,0.5l0,0c0.5,0,1.6,0,2.2-0.5c0.5-0.5,1.6-0.5,2.2-1.1
			l0,0c0.5-0.5,1.1-1.1,2.2-1.6C499.7,1116.2,500.2,1115.1,500.7,1114.5L500.7,1114.5z M498.6,1109.1L498.6,1109.1l-1.6,2.7
			c-0.5,0.5-0.5,1.1-1.1,1.6c-0.5,0.5-0.5,0.5-1.1,1.1l0,0c-0.5,0.5-1.1,0.5-1.1,1.1c-0.5,0-1.1,0.5-1.6,0.5l0,0c-0.5,0-0.5,0-1.1,0
			c-0.5,0-0.5,0-1.1-0.5l0,0c-0.5,0-0.5-0.5-1.1-1.1c0-0.5-0.5-0.5-0.5-1.1l0,0c0-0.5,0-1.1,0-1.6c0-0.5,0-1.1,0.5-1.6l0,0
			c0-0.5,0.5-1.1,0.5-1.6c0-0.5,0.5-1.1,0.5-1.6l0,0l1.6-2.7c0.5-0.5,0.5-1.1,1.1-1.6c0.5-0.5,0.5-1.1,1.1-1.1l0,0
			c0.5-0.5,1.1-0.5,1.1-1.1c0.5,0,1.1-0.5,1.6-0.5l0,0c0.5,0,0.5,0,1.1,0c0.5,0,0.5,0,1.1,0.5l0,0c0.5,0,0.5,0.5,1.1,0.5
			c0,0.5,0.5,0.5,0.5,1.1l0,0c0,0.5,0,1.1,0,1.6s0,1.1,0,1.6l0,0c0,0.5-0.5,1.1-0.5,1.6C499.1,1108,499.1,1108.5,498.6,1109.1
			L498.6,1109.1z M537.1,1121.6l-0.5-9.2l-5.4-1.1l-4.3,22.8l3.8,0.5l1.1-6.5l1.6-10.3l1.1,9.8l2.2,0.5l4.9-9.2l-2.2,10.9l-1.1,6.5
			l3.8,0.5l4.3-22.8l-5.4-1.1L537.1,1121.6z M579.5,1126.5l9.8-1.6l-0.5-3.8l-9.8,1.6l-1.1-6.5l10.9-1.6l-0.5-3.8l-15.8,2.7
			l3.8,22.8l4.3-0.5L579.5,1126.5z M636,1111.8l-9.8,5.4l-9.8-17.4l-3.8,2.2l11.4,20.1l13.6-7.6L636,1111.8z M665.9,1073.8
			L665.9,1073.8l-2.7-2.2c-0.5-0.5-1.6-1.1-2.7-1.6c-1.1-0.5-1.6-0.5-2.7-1.1l0,0c-0.5,0-1.6-0.5-2.2-0.5s-1.6,0-2.2,0.5l0,0
			c-0.5,0-1.6,0.5-2.2,1.1c-0.5,0.5-1.1,1.1-1.6,1.6l0,0c-0.5,0.5-1.1,1.6-1.1,2.2c-0.5,0.5-0.5,1.6-0.5,2.2l0,0c0,0.5,0,1.6,0,2.2
			c0,0.5,0.5,1.6,0.5,2.2l0,0c0.5,0.5,1.1,1.6,1.6,2.2c0.5,0.5,1.1,1.6,2.2,2.2l0,0l2.7,2.2c0.5,0.5,1.6,1.1,2.2,1.6
			c0.5,0.5,1.6,0.5,2.2,1.1l0,0c1.1,0,1.6,0.5,2.7,0.5c0.5,0,1.6,0,2.2,0l0,0c0.5,0,1.6-0.5,2.2-1.1s1.1-1.1,1.6-1.6l0,0
			c0.5-0.5,1.1-1.1,1.1-2.2c0.5-0.5,0.5-1.6,0.5-2.2l0,0c0-0.5,0-1.6,0-2.2c0-1.1-0.5-1.6-0.5-2.2l0,0c-0.5-0.5-1.1-1.6-1.6-2.2
			C667.5,1074.9,667,1074.3,665.9,1073.8L665.9,1073.8z M660.5,1074.9L660.5,1074.9l2.7,2.2c0.5,0.5,1.1,0.5,1.1,1.1
			c0.5,0.5,0.5,0.5,1.1,1.1l0,0c0.5,0.5,0.5,1.1,0.5,1.6c0,0.5,0.5,1.1,0.5,1.6l0,0c0,0.5,0,0.5,0,1.1c0,0.5-0.5,0.5-0.5,1.1l0,0
			c-0.5,0.5-0.5,0.5-1.1,1.1c-0.5,0-0.5,0.5-1.1,0.5l0,0c-0.5,0-1.1,0-1.6,0c-0.5,0-1.1-0.5-1.6-0.5l0,0c-0.5,0-1.1-0.5-1.1-0.5
			c-0.5-0.5-1.1-0.5-1.1-1.1l0,0l-2.7-2.2c-0.5-0.5-1.1-0.5-1.1-1.1c-0.5-0.5-0.5-0.5-1.1-1.1l0,0c-0.5-0.5-0.5-1.1-1.1-1.6
			c0-0.5-0.5-1.1-0.5-1.6l0,0c0-0.5,0-0.5,0-1.1c0-0.5,0.5-0.5,0.5-1.1l0,0c0.5-0.5,0.5-0.5,1.1-0.5s0.5-0.5,1.1-0.5l0,0
			c0.5,0,1.1,0,1.6,0c0.5,0,1.1,0,1.6,0.5l0,0c0.5,0,1.1,0.5,1.1,0.5C659.4,1074.3,659.9,1074.3,660.5,1074.9L660.5,1074.9z
			 M667,1044.4l22.8,4.9l1.1-3.8l-11.4-6l-1.1-0.5h1.1l12.5,2.2l1.1-3.8l-21.2-10.9l-1.6,3.8l12,6l1.1,0.5h-1.1l-13-2.7l-1.1,3.3
			l11.4,6l1.1,0.5h-1.1l-13-2.7L667,1044.4z"/>
		<path class="st0" d="M433.4,956.4l1.1-3.3l9.8-1.6l1.6-4.3l0,0l-10.3,1.6c0-0.5,0-1.1-0.5-2.2c0-0.5-0.5-1.1-1.1-1.6l0,0
			c-0.5-0.5-1.1-1.1-1.6-1.1c-0.5-0.5-1.1-0.5-2.2-1.1l0,0c-1.1-0.5-2.2-0.5-3.3-0.5s-1.6,0.5-2.7,1.1l0,0c-0.5,0.5-1.6,1.1-2.2,2.2
			s-1.1,2.2-1.6,3.3l0,0l-2.2,7.1l21.7,7.1l1.6-4.3L433.4,956.4z M431.2,952.1l-1.1,3.3l-7.1-2.2l1.1-3.3c0-0.5,0.5-1.1,0.5-1.6
			c0.5-0.5,0.5-0.5,1.1-1.1l0,0c0.5,0,1.1-0.5,1.6-0.5c0.5,0,1.1,0,1.6,0l0,0c0.5,0,1.1,0.5,1.1,0.5c0.5,0,0.5,0.5,0.5,1.1l0,0
			c0,0.5,0.5,1.1,0.5,1.6C431.2,950.4,431.2,951.5,431.2,952.1z M461.6,905.3L461.6,905.3l-2.7-2.2c-1.1-0.5-1.6-1.1-2.7-1.6
			c-1.1-0.5-1.6-0.5-2.7-1.1l0,0c-0.5,0-1.6,0-2.2,0s-1.6,0-2.2,0.5l0,0c-0.5,0-1.6,0.5-2.2,1.1c-0.5,0.5-1.1,1.1-1.6,1.6l0,0
			c-0.5,0.5-1.1,1.6-1.1,2.2c-0.5,0.5-0.5,1.6-0.5,2.2l0,0c0,0.5,0,1.6,0,2.2s0.5,1.6,0.5,2.2l0,0c0.5,0.5,1.1,1.6,1.6,2.2
			c0.5,0.5,1.1,1.6,2.2,2.2l0,0l2.7,2.2c0.5,0.5,1.6,1.1,2.2,1.6c0.5,0.5,1.6,0.5,2.2,1.1l0,0c1.1,0,1.6,0.5,2.2,0.5s1.6,0,2.2-0.5
			l0,0c0.5,0,1.6-0.5,2.2-1.1c0.5-0.5,1.1-1.1,1.6-1.6l0,0c0.5-0.5,1.1-1.1,1.1-2.2c0.5-0.5,0.5-1.6,0.5-2.2l0,0c0-0.5,0-1.6,0-2.2
			c0-0.5-0.5-1.6-0.5-2.2l0,0c-0.5-0.5-1.1-1.6-1.6-2.2C462.7,906.4,462.2,905.9,461.6,905.3z M456.2,906.4L456.2,906.4l2.7,2.2
			c0.5,0.5,1.1,0.5,1.1,1.1c0.5,0.5,0.5,0.5,1.1,1.1l0,0c0.5,0.5,0.5,1.1,0.5,1.6c0,0.5,0.5,1.1,0.5,1.6l0,0c0,0.5,0,0.5,0,1.1
			c0,0.5-0.5,0.5-0.5,1.1l0,0c-0.5,0.5-0.5,0.5-1.1,1.1c-0.5,0-0.5,0.5-1.1,0.5l0,0c-0.5,0-1.1,0-1.6,0c-0.5,0-1.1-0.5-1.6-0.5l0,0
			c-0.5,0-1.1-0.5-1.1-0.5c-0.5-0.5-1.1-0.5-1.1-1.1l0,0l-2.7-2.2c-0.5-0.5-1.1-0.5-1.1-1.1c-0.5-0.5-0.5-0.5-1.1-1.1l0,0
			c-0.5-0.5-0.5-1.1-1.1-1.6c0-0.5-0.5-1.1-0.5-1.6l0,0c0-0.5,0-0.5,0-1.1c0-0.5,0.5-0.5,0.5-1.1l0,0c0.5-0.5,0.5-0.5,1.1-0.5
			s0.5-0.5,1.1-0.5l0,0c0.5,0,1.1,0,1.6,0c0.5,0,1.1,0,1.6,0.5l0,0c0.5,0,1.1,0.5,1.1,0.5C455.1,905.9,455.6,906.4,456.2,906.4z
			 M499.1,877.1L499.1,877.1l-1.6-2.7c-0.5-1.1-1.1-1.6-1.6-2.2c-0.5-0.5-1.1-1.1-2.2-1.6l0,0c-0.5-0.5-1.1-0.5-2.2-1.1
			c-0.5,0-1.6-0.5-2.2-0.5l0,0c-0.5,0-1.6,0-2.2,0s-1.6,0.5-2.2,1.1l0,0c-0.5,0.5-1.6,1.1-2.2,1.6c-0.5,0.5-1.1,1.1-1.1,1.6l0,0
			c-0.5,0.5-0.5,1.6-0.5,2.2s0,1.6,0,2.2l0,0c0,1.1,0.5,1.6,0.5,2.7c0.5,1.1,0.5,1.6,1.1,2.7l0,0l1.6,2.7c0.5,1.1,1.1,1.6,1.6,2.2
			c0.5,0.5,1.1,1.1,1.6,1.6l0,0c0.5,0.5,1.6,1.1,2.2,1.1c0.5,0.5,1.6,0.5,2.2,0.5l0,0c0.5,0,1.6,0,2.2,0s1.6-0.5,2.2-1.1l0,0
			c0.5-0.5,1.1-1.1,1.6-1.6c0.5-0.5,1.1-1.1,1.1-1.6l0,0c1.6-0.5,1.6-1.6,1.6-2.2c0-0.5,0-1.6,0-2.7l0,0c0-1.1-0.5-1.6-0.5-2.7
			C500.2,878.7,499.7,877.6,499.1,877.1z M493.7,876.6L493.7,876.6l1.6,2.7c0.5,0.5,0.5,1.1,0.5,1.6s0.5,1.1,0.5,1.6l0,0
			c0,0.5,0,1.1,0,1.6c0,0.5,0,1.1,0,1.6l0,0c0,0.5-0.5,0.5-0.5,1.1s-0.5,0.5-1.1,0.5l0,0c-0.5,0-0.5,0.5-1.1,0.5s-0.5,0-1.1,0l0,0
			c-0.5,0-1.1-0.5-1.1-0.5c-0.5-0.5-1.1-0.5-1.1-1.1l0,0c-0.5-1.1-0.5-1.1-1.1-1.6c-0.5-0.5-0.5-1.1-1.1-1.1l0,0l-1.6-2.7
			c-0.5-0.5-0.5-1.1-0.5-1.6c0-0.5-0.5-1.1-0.5-1.6l0,0c0-0.5-0.5-1.1-0.5-1.6c0-0.5,0-1.1,0-1.6l0,0c0-0.5,0.5-0.5,0.5-1.1
			c0,0,0.5-0.5,1.1-0.5l0,0c0.5,0,0.5-0.5,1.1-0.5s0.5,0,1.1,0l0,0c0.5,0,1.1,0,1.6,0.5c0.5,0,1.1,0.5,1.1,1.1l0,0
			c0.5,0.5,0.5,0.5,1.1,1.1C493.1,875.5,493.1,876,493.7,876.6z M535,860.8l-3.8-8.1l-5.4,1.1l4.3,22.8l3.8-0.5l-1.1-6.5l-2.2-10.3
			l4.3,8.7l2.2-0.5l1.1-10.3l1.6,10.3l1.1,6.5l3.8-0.5l-4.3-22.8l-5.4,1.1V860.8z M580.1,864.6l9.8,1.6l0.5-3.8l-9.8-1.6l1.1-6
			l10.9,1.6l0.5-3.8l-15.2-2.7l-3.8,22.8l4.3,0.5L580.1,864.6z M630.6,890.7l-9.2-5.4l9.8-16.8l-3.8-2.2l-11.4,20.1l13,7.6
			L630.6,890.7z M668.1,918.4L668.1,918.4l2.7-2.2c0.5-0.5,1.6-1.6,2.2-2.2c0.5-0.5,1.1-1.6,1.6-2.2l0,0c0.5-0.5,0.5-1.6,0.5-2.2
			c0-0.5,0-1.6,0-2.2l0,0c0-0.5-0.5-1.6-0.5-2.2c-0.5-0.5-0.5-1.6-1.1-2.2l0,0c-0.5-0.5-1.1-1.1-1.6-1.6c-0.5-0.5-1.1-0.5-2.2-1.1
			l0,0c-0.5,0-1.6-0.5-2.2-0.5c-0.5,0-1.6,0-2.2,0.5l0,0c-0.5,0-1.6,0.5-2.2,1.1c-0.5,0.5-1.6,1.1-2.2,1.6l0,0l-2.7,2.2
			c-0.5,0.5-1.6,1.1-2.2,2.2c-0.5,0.5-1.1,1.1-1.6,2.2l0,0c-0.5,0.5-0.5,1.6-1.1,2.2c0,0.5,0,1.6,0,2.2l0,0c0,0.5,0,1.6,0.5,2.2
			c0.5,0.5,0.5,1.6,1.1,2.2l0,0c0.5,0.5,1.1,1.1,1.6,1.6c0.5,0.5,1.1,0.5,2.2,1.1l0,0c0.5,0,1.6,0.5,2.2,0.5c1.1,0,1.6,0,2.7-0.5
			l0,0c0.5,0,1.6-0.5,2.2-1.1S667,918.9,668.1,918.4z M667.5,912.4L667.5,912.4l-2.7,2.2c-0.5,0.5-1.1,0.5-1.1,1.1
			c-0.5,0.5-1.1,0.5-1.1,0.5l0,0c-0.5,0-1.1,0.5-1.6,0.5c-0.5,0-1.1,0-1.6,0l0,0c-0.5,0-0.5,0-1.1-0.5c-0.5,0-0.5-0.5-1.1-0.5l0,0
			c-0.5-0.5-0.5-0.5-0.5-1.1s0-0.5,0-1.1l0,0c0-0.5,0-1.1,0.5-1.1c0-0.5,0.5-1.1,1.1-1.6l0,0c0.5-0.5,0.5-0.5,1.1-1.1
			c0.5-0.5,0.5-0.5,1.1-1.1l0,0l2.7-2.2c0.5-0.5,1.1-0.5,1.1-1.1c0.5-0.5,1.1-0.5,1.1-0.5l0,0c0.5-0.5,1.1-0.5,1.6-0.5
			c0.5,0,1.1,0,1.6,0l0,0c0.5,0,0.5,0,1.1,0.5c0.5,0,0.5,0.5,1.1,0.5l0,0c0.5,0.5,0.5,0.5,0.5,1.1c0,0.5,0,0.5,0,1.1l0,0
			c0,0.5,0,1.1,0,1.6c0,0.5-0.5,1.1-0.5,1.6l0,0c0,0.5-0.5,0.5-1.1,1.1C668.6,911.9,668.1,912.4,667.5,912.4z M694.7,939.6
			l-20.6,10.3l1.1,3.8l12.5-2.2h1.1l-1.1,0.5l-10.9,6l1.1,3.8l22.8-4.3l-1.1-3.8l-12.5,2.7H686l1.1-0.5l11.4-6l-1.1-3.3l-12.5,2.7
			h-1.1l0.5-0.5l11.4-5.4L694.7,939.6z"/>
		<path class="st0" d="M418.2,996.6c0-4.9,3.8-8.7,8.7-8.7c4.9,0,8.7,3.8,8.7,8.7c0,4.9-3.8,8.7-8.7,8.7
			C422.5,1005.9,418.2,1001.5,418.2,996.6z M682.8,996.6c0-4.9,3.8-8.7,8.7-8.7c4.9,0,8.7,3.8,8.7,8.7c0,4.9-3.8,8.7-8.7,8.7
			C687.1,1005.9,682.8,1001.5,682.8,996.6z"/>
	</g>
	<circle class="st1" cx="559.4" cy="993.4" r="192"/>
</g>
</svg>
